<mxfile host="app.diagrams.net" modified="2022-06-23T07:58:41.962Z" agent="5.0 (Windows NT 10.0; Win64; x64) AppleWebKit/537.36 (KHTML, like Gecko) Chrome/102.0.0.0 Safari/537.36" etag="ghtL2N5i3AR20gpk5hKT" version="20.0.1" type="github">
  <diagram id="puESU1Xp0VZ92eHGtiXO" name="全行名單流程">
    <mxGraphModel dx="1408" dy="748" grid="1" gridSize="10" guides="1" tooltips="1" connect="1" arrows="1" fold="1" page="1" pageScale="1" pageWidth="1600" pageHeight="900" math="0" shadow="0">
      <root>
        <mxCell id="0" />
        <mxCell id="1" parent="0" />
        <mxCell id="UMTA41j7bZhNf6njEWew-1" value="全行名單派送流程" style="shape=table;childLayout=tableLayout;startSize=40;collapsible=0;recursiveResize=0;expand=0;fontStyle=1;rounded=1;strokeColor=#36393d;fillColor=#ffff88;fontSize=24;dashed=1;dashPattern=1 1;swimlaneFillColor=#F8CECC;arcSize=15;opacity=60;" parent="1" vertex="1">
          <mxGeometry x="80" y="40" width="2250" height="960" as="geometry" />
        </mxCell>
        <mxCell id="w_BIVJK4_qSYrG3gyEWa-11" style="shape=tableRow;horizontal=0;startSize=100;swimlaneHead=0;swimlaneBody=0;top=0;left=0;bottom=0;right=0;dropTarget=0;fillColor=none;collapsible=0;recursiveResize=0;expand=0;fontStyle=1;rounded=1;fontColor=#1D3557;strokeColor=#457B9D;dashed=1;dashPattern=1 1;" parent="UMTA41j7bZhNf6njEWew-1" vertex="1">
          <mxGeometry y="40" width="2250" height="191" as="geometry" />
        </mxCell>
        <mxCell id="5WM7OzFjDkamJJKNZSvt-9" style="swimlane;swimlaneHead=0;swimlaneBody=0;fontStyle=0;connectable=0;fillColor=none;startSize=0;collapsible=0;recursiveResize=0;expand=0;fontStyle=1;rounded=1;fontColor=#1D3557;strokeColor=#457B9D;dashed=1;dashPattern=1 1;" parent="w_BIVJK4_qSYrG3gyEWa-11" vertex="1">
          <mxGeometry x="100" width="210" height="191" as="geometry">
            <mxRectangle width="210" height="191" as="alternateBounds" />
          </mxGeometry>
        </mxCell>
        <mxCell id="w_BIVJK4_qSYrG3gyEWa-12" style="swimlane;swimlaneHead=0;swimlaneBody=0;fontStyle=0;connectable=0;fillColor=none;startSize=0;collapsible=0;recursiveResize=0;expand=0;fontStyle=1;rounded=1;fontColor=#1D3557;strokeColor=#457B9D;dashed=1;dashPattern=1 1;" parent="w_BIVJK4_qSYrG3gyEWa-11" vertex="1">
          <mxGeometry x="310" width="390" height="191" as="geometry">
            <mxRectangle width="390" height="191" as="alternateBounds" />
          </mxGeometry>
        </mxCell>
        <mxCell id="w_BIVJK4_qSYrG3gyEWa-28" value="&lt;font style=&quot;font-size: 15px;&quot;&gt;JIRA&lt;/font&gt;" style="text;html=1;resizable=0;autosize=1;align=center;verticalAlign=middle;points=[];fillColor=none;strokeColor=none;rounded=1;fontColor=#1D3557;fontSize=25;dashed=1;dashPattern=1 1;" parent="w_BIVJK4_qSYrG3gyEWa-12" vertex="1">
          <mxGeometry x="195" y="90" width="50" height="40" as="geometry" />
        </mxCell>
        <mxCell id="SjREfzZsGC1jxPRMe95D-23" value="" style="pointerEvents=1;shadow=0;dashed=1;html=1;strokeColor=none;fillColor=#505050;labelPosition=center;verticalLabelPosition=bottom;verticalAlign=top;outlineConnect=0;align=center;shape=mxgraph.office.servers.application_server_blue;rounded=1;fontSize=20;fontColor=#1D3557;dashPattern=1 1;" parent="w_BIVJK4_qSYrG3gyEWa-12" vertex="1">
          <mxGeometry x="144" y="90" width="46" height="56" as="geometry" />
        </mxCell>
        <mxCell id="jLm4mOwfWfzToB2sMfA3-2" value="控管整體名單發送狀態流程" style="text;html=1;resizable=0;autosize=1;align=center;verticalAlign=middle;points=[];fillColor=#fff2cc;strokeColor=#d6b656;rounded=0;dashed=1;dashPattern=1 1;fontSize=18;gradientColor=#ffd966;" parent="w_BIVJK4_qSYrG3gyEWa-12" vertex="1">
          <mxGeometry x="70" y="46" width="230" height="30" as="geometry" />
        </mxCell>
        <mxCell id="w_BIVJK4_qSYrG3gyEWa-13" style="swimlane;swimlaneHead=0;swimlaneBody=0;fontStyle=0;connectable=0;fillColor=none;startSize=0;collapsible=0;recursiveResize=0;expand=0;fontStyle=1;rounded=1;fontColor=#1D3557;strokeColor=#457B9D;dashed=1;dashPattern=1 1;" parent="w_BIVJK4_qSYrG3gyEWa-11" vertex="1">
          <mxGeometry x="700" width="230" height="191" as="geometry">
            <mxRectangle width="230" height="191" as="alternateBounds" />
          </mxGeometry>
        </mxCell>
        <mxCell id="SjREfzZsGC1jxPRMe95D-1" value="&lt;div style=&quot;font-size: 15px;&quot;&gt;&lt;font style=&quot;font-size: 15px;&quot;&gt;SAS&lt;/font&gt;&lt;/div&gt;&lt;div style=&quot;font-size: 15px;&quot;&gt;&lt;font style=&quot;font-size: 15px;&quot;&gt;MLaaS&lt;/font&gt;&lt;/div&gt;&lt;div style=&quot;font-size: 15px;&quot;&gt;&lt;font style=&quot;font-size: 15px;&quot;&gt;DMX&lt;/font&gt;&lt;/div&gt;" style="text;html=1;resizable=0;autosize=1;align=center;verticalAlign=middle;points=[];fillColor=none;strokeColor=none;rounded=1;fontSize=15;fontColor=#1D3557;dashed=1;dashPattern=1 1;" parent="w_BIVJK4_qSYrG3gyEWa-13" vertex="1">
          <mxGeometry x="102" y="91" width="60" height="60" as="geometry" />
        </mxCell>
        <mxCell id="SjREfzZsGC1jxPRMe95D-24" value="" style="pointerEvents=1;shadow=0;dashed=1;html=1;strokeColor=none;fillColor=#505050;labelPosition=center;verticalLabelPosition=bottom;verticalAlign=top;outlineConnect=0;align=center;shape=mxgraph.office.servers.application_server_blue;rounded=1;fontSize=20;fontColor=#1D3557;dashPattern=1 1;" parent="w_BIVJK4_qSYrG3gyEWa-13" vertex="1">
          <mxGeometry x="46" y="93" width="46" height="56" as="geometry" />
        </mxCell>
        <mxCell id="QNSCKvZcCUtr9aruzuNG-1" value="分析平台、產生名單母體" style="text;html=1;resizable=0;autosize=1;align=center;verticalAlign=middle;points=[];fillColor=#fff2cc;strokeColor=#d6b656;rounded=0;dashed=1;dashPattern=1 1;fontSize=18;gradientColor=#ffd966;" parent="w_BIVJK4_qSYrG3gyEWa-13" vertex="1">
          <mxGeometry x="12" y="47" width="210" height="30" as="geometry" />
        </mxCell>
        <mxCell id="w_BIVJK4_qSYrG3gyEWa-14" style="swimlane;swimlaneHead=0;swimlaneBody=0;fontStyle=0;connectable=0;fillColor=none;startSize=0;collapsible=0;recursiveResize=0;expand=0;fontStyle=1;rounded=1;fontColor=#1D3557;strokeColor=#457B9D;dashed=1;dashPattern=1 1;" parent="w_BIVJK4_qSYrG3gyEWa-11" vertex="1">
          <mxGeometry x="930" width="220" height="191" as="geometry">
            <mxRectangle width="220" height="191" as="alternateBounds" />
          </mxGeometry>
        </mxCell>
        <mxCell id="SjREfzZsGC1jxPRMe95D-25" value="" style="pointerEvents=1;shadow=0;dashed=1;html=1;strokeColor=none;fillColor=#505050;labelPosition=center;verticalLabelPosition=bottom;verticalAlign=top;outlineConnect=0;align=center;shape=mxgraph.office.servers.application_server_blue;rounded=1;fontSize=20;fontColor=#1D3557;dashPattern=1 1;" parent="w_BIVJK4_qSYrG3gyEWa-14" vertex="1">
          <mxGeometry x="59" y="92" width="46" height="56" as="geometry" />
        </mxCell>
        <mxCell id="SjREfzZsGC1jxPRMe95D-26" value="&lt;div style=&quot;font-size: 15px;&quot;&gt;UNICA&lt;/div&gt;" style="text;html=1;resizable=0;autosize=1;align=center;verticalAlign=middle;points=[];fillColor=none;strokeColor=none;rounded=1;fontSize=15;fontColor=#1D3557;dashed=1;dashPattern=1 1;" parent="w_BIVJK4_qSYrG3gyEWa-14" vertex="1">
          <mxGeometry x="110" y="110" width="60" height="20" as="geometry" />
        </mxCell>
        <mxCell id="QNSCKvZcCUtr9aruzuNG-2" value="過GCF、發送到通路" style="text;html=1;resizable=0;autosize=1;align=center;verticalAlign=middle;points=[];fillColor=#fff2cc;strokeColor=#d6b656;rounded=0;dashed=1;dashPattern=1 1;fontSize=18;gradientColor=#ffd966;" parent="w_BIVJK4_qSYrG3gyEWa-14" vertex="1">
          <mxGeometry x="30" y="46" width="180" height="30" as="geometry" />
        </mxCell>
        <mxCell id="SjREfzZsGC1jxPRMe95D-9" style="swimlane;swimlaneHead=0;swimlaneBody=0;fontStyle=0;connectable=0;fillColor=none;startSize=0;collapsible=0;recursiveResize=0;expand=0;fontStyle=1;rounded=1;fontColor=#1D3557;strokeColor=#457B9D;dashed=1;dashPattern=1 1;" parent="w_BIVJK4_qSYrG3gyEWa-11" vertex="1">
          <mxGeometry x="1150" width="410" height="191" as="geometry">
            <mxRectangle width="410" height="191" as="alternateBounds" />
          </mxGeometry>
        </mxCell>
        <mxCell id="SjREfzZsGC1jxPRMe95D-27" value="" style="pointerEvents=1;shadow=0;dashed=1;html=1;strokeColor=none;fillColor=#505050;labelPosition=center;verticalLabelPosition=bottom;verticalAlign=top;outlineConnect=0;align=center;shape=mxgraph.office.servers.application_server_blue;rounded=1;fontSize=20;fontColor=#1D3557;dashPattern=1 1;" parent="SjREfzZsGC1jxPRMe95D-9" vertex="1">
          <mxGeometry x="30" y="89" width="46" height="56" as="geometry" />
        </mxCell>
        <mxCell id="SjREfzZsGC1jxPRMe95D-29" value="&lt;div style=&quot;font-size: 13px;&quot;&gt;NBS&lt;/div&gt;&lt;div style=&quot;font-size: 13px;&quot;&gt;PIB(banner)&lt;/div&gt;&lt;div style=&quot;font-size: 13px;&quot;&gt;Peoplesoft(inboud行銷)&lt;/div&gt;&lt;div style=&quot;font-size: 13px;&quot;&gt;&lt;span style=&quot;background-color: initial; font-size: 13px;&quot;&gt;Bank3.0房貸額度利率評估&lt;/span&gt;&lt;br style=&quot;font-size: 13px;&quot;&gt;&lt;/div&gt;&lt;div style=&quot;font-size: 13px;&quot;&gt;Bank3.0信貸額度利率評估&lt;/div&gt;&lt;div style=&quot;font-size: 13px;&quot;&gt;Bank3.0SB額度利率評估&lt;/div&gt;&lt;div style=&quot;font-size: 13px;&quot;&gt;&lt;br style=&quot;font-size: 13px;&quot;&gt;&lt;/div&gt;" style="text;html=1;resizable=0;autosize=1;align=center;verticalAlign=middle;points=[];fillColor=none;strokeColor=none;rounded=1;fontSize=13;fontColor=#1D3557;dashed=1;dashPattern=1 1;" parent="SjREfzZsGC1jxPRMe95D-9" vertex="1">
          <mxGeometry x="239" y="20" width="170" height="120" as="geometry" />
        </mxCell>
        <mxCell id="SjREfzZsGC1jxPRMe95D-30" value="&lt;font style=&quot;font-size: 13px;&quot;&gt;B08:LINE(個人化行銷推播)&lt;br style=&quot;font-size: 13px;&quot;&gt;B08:行動推播(行銀、Wallet)&lt;br style=&quot;font-size: 13px;&quot;&gt;B08:簡訊&lt;br style=&quot;font-size: 13px;&quot;&gt;B08:EDM&lt;br style=&quot;font-size: 13px;&quot;&gt;&lt;/font&gt;" style="text;html=1;resizable=0;autosize=1;align=center;verticalAlign=middle;points=[];fillColor=none;strokeColor=none;rounded=1;fontSize=13;fontColor=#1D3557;dashed=1;dashPattern=1 1;" parent="SjREfzZsGC1jxPRMe95D-9" vertex="1">
          <mxGeometry x="222" y="123" width="180" height="70" as="geometry" />
        </mxCell>
        <mxCell id="QNSCKvZcCUtr9aruzuNG-3" value="&lt;div style=&quot;font-size: 13px;&quot;&gt;保險電銷系統&lt;/div&gt;&lt;div style=&quot;font-size: 13px;&quot;&gt;MARS&lt;/div&gt;&lt;div style=&quot;font-size: 13px;&quot;&gt;Peoplesoft(outbound)&lt;/div&gt;&lt;div style=&quot;font-size: 13px;&quot;&gt;iSMS&lt;/div&gt;&lt;div style=&quot;font-size: 13px;&quot;&gt;Mail Hunter&lt;/div&gt;&lt;div style=&quot;font-size: 13px;&quot;&gt;PIB(我的優惠)&lt;/div&gt;&lt;div style=&quot;font-size: 13px;&quot;&gt;外匯共用平台&lt;/div&gt;&lt;div style=&quot;font-size: 13px;&quot;&gt;卡處400&lt;/div&gt;&lt;div style=&quot;font-size: 13px;&quot;&gt;智能外撥&lt;/div&gt;" style="text;html=1;resizable=0;autosize=1;align=center;verticalAlign=middle;points=[];fillColor=none;strokeColor=none;rounded=0;dashed=1;dashPattern=1 1;fontSize=13;fontColor=#1D3557;" parent="SjREfzZsGC1jxPRMe95D-9" vertex="1">
          <mxGeometry x="69" y="33" width="140" height="150" as="geometry" />
        </mxCell>
        <mxCell id="QNSCKvZcCUtr9aruzuNG-17" value="UNICA串接之通路" style="text;html=1;resizable=0;autosize=1;align=center;verticalAlign=middle;points=[];fillColor=#fff2cc;strokeColor=#d6b656;rounded=0;dashed=1;dashPattern=1 1;fontSize=18;gradientColor=#ffd966;" parent="SjREfzZsGC1jxPRMe95D-9" vertex="1">
          <mxGeometry x="140" y="3" width="160" height="30" as="geometry" />
        </mxCell>
        <mxCell id="SjREfzZsGC1jxPRMe95D-6" style="swimlane;swimlaneHead=0;swimlaneBody=0;fontStyle=0;connectable=0;fillColor=none;startSize=0;collapsible=0;recursiveResize=0;expand=0;fontStyle=1;rounded=1;fontColor=#1D3557;strokeColor=#457B9D;dashed=1;dashPattern=1 1;" parent="w_BIVJK4_qSYrG3gyEWa-11" vertex="1">
          <mxGeometry x="1560" width="180" height="191" as="geometry">
            <mxRectangle width="180" height="191" as="alternateBounds" />
          </mxGeometry>
        </mxCell>
        <mxCell id="SjREfzZsGC1jxPRMe95D-31" value="" style="pointerEvents=1;shadow=0;dashed=1;html=1;strokeColor=none;fillColor=#505050;labelPosition=center;verticalLabelPosition=bottom;verticalAlign=top;outlineConnect=0;align=center;shape=mxgraph.office.servers.application_server_blue;rounded=1;fontSize=20;fontColor=#1D3557;dashPattern=1 1;" parent="SjREfzZsGC1jxPRMe95D-6" vertex="1">
          <mxGeometry x="20" y="81" width="46" height="56" as="geometry" />
        </mxCell>
        <mxCell id="SjREfzZsGC1jxPRMe95D-32" value="&lt;div style=&quot;font-size: 12px;&quot;&gt;&lt;font style=&quot;font-size: 12px;&quot;&gt;Firebase(行銀推撥)&lt;/font&gt;&lt;/div&gt;&lt;div style=&quot;font-size: 12px;&quot;&gt;&lt;font style=&quot;font-size: 12px;&quot;&gt;綜合對帳單&lt;/font&gt;&lt;/div&gt;" style="text;html=1;resizable=0;autosize=1;align=center;verticalAlign=middle;points=[];fillColor=none;strokeColor=none;rounded=1;fontSize=12;fontColor=#1D3557;dashed=1;dashPattern=1 1;" parent="SjREfzZsGC1jxPRMe95D-6" vertex="1">
          <mxGeometry x="55" y="89" width="120" height="30" as="geometry" />
        </mxCell>
        <mxCell id="QNSCKvZcCUtr9aruzuNG-18" value="&lt;font style=&quot;font-size: 15px;&quot;&gt;透過MLaaS及資訊處&lt;br&gt;控管GCF&lt;/font&gt;" style="text;html=1;resizable=0;autosize=1;align=center;verticalAlign=middle;points=[];fillColor=#fff2cc;strokeColor=#d6b656;rounded=0;dashed=1;dashPattern=1 1;fontSize=18;gradientColor=#ffd966;" parent="SjREfzZsGC1jxPRMe95D-6" vertex="1">
          <mxGeometry x="18" y="17" width="150" height="50" as="geometry" />
        </mxCell>
        <mxCell id="SjREfzZsGC1jxPRMe95D-3" style="swimlane;swimlaneHead=0;swimlaneBody=0;fontStyle=0;connectable=0;fillColor=none;startSize=0;collapsible=0;recursiveResize=0;expand=0;fontStyle=1;rounded=1;fontColor=#1D3557;strokeColor=#457B9D;dashed=1;dashPattern=1 1;" parent="w_BIVJK4_qSYrG3gyEWa-11" vertex="1">
          <mxGeometry x="1740" width="160" height="191" as="geometry">
            <mxRectangle width="160" height="191" as="alternateBounds" />
          </mxGeometry>
        </mxCell>
        <mxCell id="SjREfzZsGC1jxPRMe95D-33" value="" style="pointerEvents=1;shadow=0;dashed=1;html=1;strokeColor=none;fillColor=#505050;labelPosition=center;verticalLabelPosition=bottom;verticalAlign=top;outlineConnect=0;align=center;shape=mxgraph.office.servers.application_server_blue;rounded=1;fontSize=20;fontColor=#1D3557;dashPattern=1 1;" parent="SjREfzZsGC1jxPRMe95D-3" vertex="1">
          <mxGeometry x="20" y="87" width="46" height="56" as="geometry" />
        </mxCell>
        <mxCell id="SjREfzZsGC1jxPRMe95D-34" value="&lt;div style=&quot;font-size: 12px;&quot;&gt;&lt;div&gt;MARS&lt;/div&gt;&lt;div&gt;Mail Hunter&lt;/div&gt;&lt;div&gt;分行個人信箱&lt;/div&gt;&lt;div&gt;WISE&lt;/div&gt;&lt;/div&gt;" style="text;html=1;resizable=0;autosize=1;align=center;verticalAlign=middle;points=[];fillColor=none;strokeColor=none;rounded=1;fontSize=12;fontColor=#1D3557;dashed=1;dashPattern=1 1;" parent="SjREfzZsGC1jxPRMe95D-3" vertex="1">
          <mxGeometry x="70" y="83" width="90" height="60" as="geometry" />
        </mxCell>
        <mxCell id="xFturlOaTy55xNONetLh-1" value="&lt;font style=&quot;font-size: 15px;&quot;&gt;透過SAS EG&lt;br&gt;控管GCF&lt;/font&gt;" style="text;html=1;resizable=0;autosize=1;align=center;verticalAlign=middle;points=[];fillColor=#fff2cc;strokeColor=#d6b656;rounded=0;dashed=1;dashPattern=1 1;fontSize=18;gradientColor=#ffd966;" parent="SjREfzZsGC1jxPRMe95D-3" vertex="1">
          <mxGeometry x="30" y="20" width="100" height="50" as="geometry" />
        </mxCell>
        <mxCell id="w_BIVJK4_qSYrG3gyEWa-15" style="swimlane;swimlaneHead=0;swimlaneBody=0;fontStyle=0;connectable=0;fillColor=none;startSize=0;collapsible=0;recursiveResize=0;expand=0;fontStyle=1;rounded=1;fontColor=#1D3557;strokeColor=#457B9D;dashed=1;dashPattern=1 1;" parent="w_BIVJK4_qSYrG3gyEWa-11" vertex="1">
          <mxGeometry x="1900" width="160" height="191" as="geometry">
            <mxRectangle width="160" height="191" as="alternateBounds" />
          </mxGeometry>
        </mxCell>
        <mxCell id="SjREfzZsGC1jxPRMe95D-41" value="" style="pointerEvents=1;shadow=0;dashed=1;html=1;strokeColor=none;fillColor=#505050;labelPosition=center;verticalLabelPosition=bottom;verticalAlign=top;outlineConnect=0;align=center;shape=mxgraph.office.servers.application_server_blue;rounded=1;fontSize=20;fontColor=#1D3557;dashPattern=1 1;" parent="w_BIVJK4_qSYrG3gyEWa-15" vertex="1">
          <mxGeometry x="22" y="90" width="46" height="56" as="geometry" />
        </mxCell>
        <mxCell id="SjREfzZsGC1jxPRMe95D-42" value="&lt;div style=&quot;font-size: 12px;&quot;&gt;&lt;div&gt;B08&lt;/div&gt;&lt;div&gt;(簡訊、EDM)&lt;/div&gt;&lt;/div&gt;" style="text;html=1;resizable=0;autosize=1;align=center;verticalAlign=middle;points=[];fillColor=none;strokeColor=none;rounded=1;fontSize=12;fontColor=#1D3557;dashed=1;dashPattern=1 1;" parent="w_BIVJK4_qSYrG3gyEWa-15" vertex="1">
          <mxGeometry x="70" y="101" width="90" height="30" as="geometry" />
        </mxCell>
        <mxCell id="xFturlOaTy55xNONetLh-2" value="&lt;font style=&quot;font-size: 15px;&quot;&gt;上傳B08需經過申請&lt;br&gt;&lt;/font&gt;" style="text;html=1;resizable=0;autosize=1;align=center;verticalAlign=middle;points=[];fillColor=#fff2cc;strokeColor=#d6b656;rounded=0;dashed=1;dashPattern=1 1;fontSize=18;gradientColor=#ffd966;" parent="w_BIVJK4_qSYrG3gyEWa-15" vertex="1">
          <mxGeometry x="5" y="36" width="150" height="30" as="geometry" />
        </mxCell>
        <mxCell id="SjREfzZsGC1jxPRMe95D-37" style="swimlane;swimlaneHead=0;swimlaneBody=0;fontStyle=0;connectable=0;fillColor=none;startSize=0;collapsible=0;recursiveResize=0;expand=0;fontStyle=1;rounded=1;fontColor=#1D3557;strokeColor=#457B9D;dashed=1;dashPattern=1 1;" parent="w_BIVJK4_qSYrG3gyEWa-11" vertex="1">
          <mxGeometry x="2060" width="190" height="191" as="geometry">
            <mxRectangle width="190" height="191" as="alternateBounds" />
          </mxGeometry>
        </mxCell>
        <mxCell id="SjREfzZsGC1jxPRMe95D-36" value="&lt;div style=&quot;&quot;&gt;&lt;div style=&quot;&quot;&gt;Firebase&lt;/div&gt;&lt;div style=&quot;&quot;&gt;(cloud messaging)&lt;/div&gt;&lt;div style=&quot;&quot;&gt;Firebase&lt;/div&gt;&lt;div style=&quot;&quot;&gt;(in-app messaging)&lt;/div&gt;&lt;div style=&quot;&quot;&gt;行銀banner&lt;/div&gt;&lt;div style=&quot;&quot;&gt;LINE(OA群發廣告訊息)&lt;/div&gt;&lt;/div&gt;" style="text;html=1;resizable=0;autosize=1;align=center;verticalAlign=middle;points=[];fillColor=none;strokeColor=none;rounded=1;fontSize=12;fontColor=#1D3557;dashed=1;dashPattern=1 1;" parent="SjREfzZsGC1jxPRMe95D-37" vertex="1">
          <mxGeometry x="47" y="70" width="140" height="90" as="geometry" />
        </mxCell>
        <mxCell id="SjREfzZsGC1jxPRMe95D-35" value="" style="pointerEvents=1;shadow=0;dashed=1;html=1;strokeColor=none;fillColor=#505050;labelPosition=center;verticalLabelPosition=bottom;verticalAlign=top;outlineConnect=0;align=center;shape=mxgraph.office.servers.application_server_blue;rounded=1;fontSize=20;fontColor=#1D3557;dashPattern=1 1;" parent="SjREfzZsGC1jxPRMe95D-37" vertex="1">
          <mxGeometry x="10" y="89" width="46" height="56" as="geometry" />
        </mxCell>
        <mxCell id="xFturlOaTy55xNONetLh-3" value="&lt;font style=&quot;font-size: 15px;&quot;&gt;不控管GCF&lt;br&gt;&lt;/font&gt;" style="text;html=1;resizable=0;autosize=1;align=center;verticalAlign=middle;points=[];fillColor=#fff2cc;strokeColor=#d6b656;rounded=0;dashed=1;dashPattern=1 1;fontSize=18;gradientColor=#ffd966;" parent="SjREfzZsGC1jxPRMe95D-37" vertex="1">
          <mxGeometry x="50" y="30" width="90" height="30" as="geometry" />
        </mxCell>
        <mxCell id="w_BIVJK4_qSYrG3gyEWa-6" style="shape=tableRow;horizontal=0;startSize=100;swimlaneHead=0;swimlaneBody=0;top=0;left=0;bottom=0;right=0;dropTarget=0;fillColor=#B9E0A5;collapsible=0;recursiveResize=0;expand=0;fontStyle=1;rounded=1;fontColor=#1D3557;strokeColor=#457B9D;dashed=1;dashPattern=1 1;swimlaneFillColor=#B9E0A5;opacity=60;" parent="UMTA41j7bZhNf6njEWew-1" vertex="1">
          <mxGeometry y="231" width="2250" height="155" as="geometry" />
        </mxCell>
        <mxCell id="5WM7OzFjDkamJJKNZSvt-10" style="swimlane;swimlaneHead=0;swimlaneBody=0;fontStyle=0;connectable=0;fillColor=#B9E0A5;startSize=0;collapsible=0;recursiveResize=0;expand=0;fontStyle=1;rounded=1;fontColor=#1D3557;strokeColor=#457B9D;dashed=1;dashPattern=1 1;" parent="w_BIVJK4_qSYrG3gyEWa-6" vertex="1">
          <mxGeometry x="100" width="210" height="155" as="geometry">
            <mxRectangle width="210" height="155" as="alternateBounds" />
          </mxGeometry>
        </mxCell>
        <mxCell id="5WM7OzFjDkamJJKNZSvt-2" value="&lt;font style=&quot;font-size: 16px;&quot;&gt;名單需求&lt;/font&gt;" style="ellipse;whiteSpace=wrap;html=1;rounded=1;fontSize=17;fontColor=#1D3557;strokeColor=#457B9D;fillColor=#FFB366;dashed=1;dashPattern=1 1;" parent="5WM7OzFjDkamJJKNZSvt-10" vertex="1">
          <mxGeometry x="10" y="37" width="80" height="50" as="geometry" />
        </mxCell>
        <mxCell id="5WM7OzFjDkamJJKNZSvt-20" value="&lt;font style=&quot;font-size: 14px;&quot;&gt;N&lt;/font&gt;" style="text;html=1;resizable=0;autosize=1;align=center;verticalAlign=middle;points=[];fillColor=none;strokeColor=none;rounded=1;fontSize=13;fontColor=#1D3557;dashed=1;dashPattern=1 1;" parent="5WM7OzFjDkamJJKNZSvt-10" vertex="1">
          <mxGeometry x="222" y="102" width="30" height="20" as="geometry" />
        </mxCell>
        <mxCell id="w_BIVJK4_qSYrG3gyEWa-7" value="" style="swimlane;swimlaneHead=0;swimlaneBody=0;fontStyle=0;connectable=0;fillColor=#B9E0A5;startSize=0;collapsible=0;recursiveResize=0;expand=0;fontStyle=1;rounded=1;fontColor=#1D3557;strokeColor=#457B9D;dashed=1;dashPattern=1 1;" parent="w_BIVJK4_qSYrG3gyEWa-6" vertex="1">
          <mxGeometry x="310" width="390" height="155" as="geometry">
            <mxRectangle width="390" height="155" as="alternateBounds" />
          </mxGeometry>
        </mxCell>
        <mxCell id="5WM7OzFjDkamJJKNZSvt-15" value="&lt;font style=&quot;font-size: 13px;&quot;&gt;1.申請campaign&lt;br&gt;2.提出排程預約&lt;br&gt;及母體篩選條件&lt;br&gt;3.申請通路資訊&lt;br&gt;&lt;/font&gt;" style="whiteSpace=wrap;html=1;fontSize=17;fillColor=#A8DADC;strokeColor=#457B9D;fontColor=#1D3557;rounded=1;dashed=1;dashPattern=1 1;" parent="w_BIVJK4_qSYrG3gyEWa-7" vertex="1">
          <mxGeometry x="80" y="7" width="120" height="110" as="geometry" />
        </mxCell>
        <mxCell id="5WM7OzFjDkamJJKNZSvt-5" value="&lt;font style=&quot;font-size: 11px;&quot;&gt;是否透過&lt;br&gt;UNICA發送?&lt;/font&gt;" style="rhombus;whiteSpace=wrap;html=1;fontSize=17;fillColor=#A8DADC;strokeColor=#457B9D;fontColor=#1D3557;rounded=1;dashed=1;dashPattern=1 1;" parent="w_BIVJK4_qSYrG3gyEWa-7" vertex="1">
          <mxGeometry x="-47" y="22" width="90" height="80" as="geometry" />
        </mxCell>
        <mxCell id="5WM7OzFjDkamJJKNZSvt-16" value="" style="edgeStyle=orthogonalEdgeStyle;rounded=1;orthogonalLoop=1;jettySize=auto;html=1;fontSize=11;fontColor=#1D3557;strokeColor=#457B9D;fillColor=#A8DADC;jumpSize=13;strokeWidth=5;exitX=1;exitY=0.5;exitDx=0;exitDy=0;" parent="w_BIVJK4_qSYrG3gyEWa-7" source="5WM7OzFjDkamJJKNZSvt-5" target="5WM7OzFjDkamJJKNZSvt-15" edge="1">
          <mxGeometry relative="1" as="geometry">
            <mxPoint x="20" y="62" as="sourcePoint" />
          </mxGeometry>
        </mxCell>
        <mxCell id="5WM7OzFjDkamJJKNZSvt-17" value="&lt;font style=&quot;font-size: 14px;&quot;&gt;Y&lt;/font&gt;" style="text;html=1;resizable=0;autosize=1;align=center;verticalAlign=middle;points=[];fillColor=none;strokeColor=none;rounded=1;fontSize=13;fontColor=#1D3557;dashed=1;dashPattern=1 1;" parent="w_BIVJK4_qSYrG3gyEWa-7" vertex="1">
          <mxGeometry x="24" y="32" width="20" height="20" as="geometry" />
        </mxCell>
        <mxCell id="w_BIVJK4_qSYrG3gyEWa-8" style="swimlane;swimlaneHead=0;swimlaneBody=0;fontStyle=0;connectable=0;fillColor=#B9E0A5;startSize=0;collapsible=0;recursiveResize=0;expand=0;fontStyle=1;rounded=1;fontColor=#1D3557;strokeColor=#457B9D;dashed=1;dashPattern=1 1;" parent="w_BIVJK4_qSYrG3gyEWa-6" vertex="1">
          <mxGeometry x="700" width="230" height="155" as="geometry">
            <mxRectangle width="230" height="155" as="alternateBounds" />
          </mxGeometry>
        </mxCell>
        <mxCell id="5WM7OzFjDkamJJKNZSvt-79" value="&lt;font style=&quot;font-size: 12px;&quot;&gt;提供通路設定截圖&lt;/font&gt;" style="whiteSpace=wrap;html=1;fontSize=17;fillColor=#A8DADC;strokeColor=#457B9D;fontColor=#1D3557;rounded=1;dashed=1;dashPattern=1 1;" parent="w_BIVJK4_qSYrG3gyEWa-8" vertex="1">
          <mxGeometry x="-143" y="32" width="120" height="60" as="geometry" />
        </mxCell>
        <mxCell id="w_BIVJK4_qSYrG3gyEWa-9" style="swimlane;swimlaneHead=0;swimlaneBody=0;fontStyle=0;connectable=0;fillColor=#B9E0A5;startSize=0;collapsible=0;recursiveResize=0;expand=0;fontStyle=1;rounded=1;fontColor=#1D3557;strokeColor=#457B9D;dashed=1;dashPattern=1 1;" parent="w_BIVJK4_qSYrG3gyEWa-6" vertex="1">
          <mxGeometry x="930" width="220" height="155" as="geometry">
            <mxRectangle width="220" height="155" as="alternateBounds" />
          </mxGeometry>
        </mxCell>
        <mxCell id="5WM7OzFjDkamJJKNZSvt-28" value="&lt;font style=&quot;font-size: 14px;&quot;&gt;Y&lt;/font&gt;" style="text;html=1;resizable=0;autosize=1;align=center;verticalAlign=middle;points=[];fillColor=none;strokeColor=none;rounded=1;fontSize=13;fontColor=#1D3557;dashed=1;dashPattern=1 1;arcSize=50;" parent="w_BIVJK4_qSYrG3gyEWa-9" vertex="1">
          <mxGeometry x="15" y="67.5" width="20" height="20" as="geometry" />
        </mxCell>
        <mxCell id="5WM7OzFjDkamJJKNZSvt-62" value="&lt;font style=&quot;font-size: 14px;&quot;&gt;N&lt;/font&gt;" style="text;html=1;resizable=0;autosize=1;align=center;verticalAlign=middle;points=[];fillColor=none;strokeColor=none;rounded=1;fontSize=13;fontColor=#1D3557;dashed=1;dashPattern=1 1;" parent="w_BIVJK4_qSYrG3gyEWa-9" vertex="1">
          <mxGeometry x="5" y="117" width="30" height="20" as="geometry" />
        </mxCell>
        <mxCell id="SjREfzZsGC1jxPRMe95D-10" style="swimlane;swimlaneHead=0;swimlaneBody=0;fontStyle=0;connectable=0;fillColor=none;startSize=0;collapsible=0;recursiveResize=0;expand=0;fontStyle=1;rounded=1;fontColor=#1D3557;strokeColor=#457B9D;dashed=1;dashPattern=1 1;" parent="w_BIVJK4_qSYrG3gyEWa-6" vertex="1">
          <mxGeometry x="1150" width="410" height="155" as="geometry">
            <mxRectangle width="410" height="155" as="alternateBounds" />
          </mxGeometry>
        </mxCell>
        <mxCell id="SjREfzZsGC1jxPRMe95D-7" style="swimlane;swimlaneHead=0;swimlaneBody=0;fontStyle=0;connectable=0;fillColor=none;startSize=0;collapsible=0;recursiveResize=0;expand=0;fontStyle=1;rounded=1;fontColor=#1D3557;strokeColor=#457B9D;dashed=1;dashPattern=1 1;" parent="w_BIVJK4_qSYrG3gyEWa-6" vertex="1">
          <mxGeometry x="1560" width="180" height="155" as="geometry">
            <mxRectangle width="180" height="155" as="alternateBounds" />
          </mxGeometry>
        </mxCell>
        <mxCell id="SjREfzZsGC1jxPRMe95D-4" style="swimlane;swimlaneHead=0;swimlaneBody=0;fontStyle=0;connectable=0;fillColor=none;startSize=0;collapsible=0;recursiveResize=0;expand=0;fontStyle=1;rounded=1;fontColor=#1D3557;strokeColor=#457B9D;dashed=1;dashPattern=1 1;" parent="w_BIVJK4_qSYrG3gyEWa-6" vertex="1">
          <mxGeometry x="1740" width="160" height="155" as="geometry">
            <mxRectangle width="160" height="155" as="alternateBounds" />
          </mxGeometry>
        </mxCell>
        <mxCell id="w_BIVJK4_qSYrG3gyEWa-10" style="swimlane;swimlaneHead=0;swimlaneBody=0;fontStyle=0;connectable=0;fillColor=none;startSize=0;collapsible=0;recursiveResize=0;expand=0;fontStyle=1;rounded=1;fontColor=#1D3557;strokeColor=#457B9D;dashed=1;dashPattern=1 1;" parent="w_BIVJK4_qSYrG3gyEWa-6" vertex="1">
          <mxGeometry x="1900" width="160" height="155" as="geometry">
            <mxRectangle width="160" height="155" as="alternateBounds" />
          </mxGeometry>
        </mxCell>
        <mxCell id="SjREfzZsGC1jxPRMe95D-38" style="swimlane;swimlaneHead=0;swimlaneBody=0;fontStyle=0;connectable=0;fillColor=none;startSize=0;collapsible=0;recursiveResize=0;expand=0;fontStyle=1;rounded=1;fontColor=#1D3557;strokeColor=#457B9D;dashed=1;dashPattern=1 1;" parent="w_BIVJK4_qSYrG3gyEWa-6" vertex="1">
          <mxGeometry x="2060" width="190" height="155" as="geometry">
            <mxRectangle width="190" height="155" as="alternateBounds" />
          </mxGeometry>
        </mxCell>
        <mxCell id="5WM7OzFjDkamJJKNZSvt-6" value="" style="edgeStyle=orthogonalEdgeStyle;rounded=1;orthogonalLoop=1;jettySize=auto;html=1;fontSize=17;fontColor=#1D3557;strokeColor=#457B9D;fillColor=#A8DADC;jumpSize=13;strokeWidth=5;" parent="w_BIVJK4_qSYrG3gyEWa-6" source="5WM7OzFjDkamJJKNZSvt-2" target="5WM7OzFjDkamJJKNZSvt-5" edge="1">
          <mxGeometry relative="1" as="geometry">
            <mxPoint x="250" y="62" as="targetPoint" />
          </mxGeometry>
        </mxCell>
        <mxCell id="w_BIVJK4_qSYrG3gyEWa-17" style="shape=tableRow;horizontal=0;startSize=100;swimlaneHead=0;swimlaneBody=0;top=0;left=0;bottom=0;right=0;dropTarget=0;fillColor=#e1d5e7;collapsible=0;recursiveResize=0;expand=0;fontStyle=1;rounded=1;strokeColor=#333333;dashed=1;dashPattern=1 1;swimlaneFillColor=#E1D5E7;opacity=60;" parent="UMTA41j7bZhNf6njEWew-1" vertex="1">
          <mxGeometry y="386" width="2250" height="243" as="geometry" />
        </mxCell>
        <mxCell id="5WM7OzFjDkamJJKNZSvt-11" style="swimlane;swimlaneHead=0;swimlaneBody=0;fontStyle=0;connectable=0;fillColor=none;startSize=0;collapsible=0;recursiveResize=0;expand=0;fontStyle=1;rounded=1;fontColor=#1D3557;strokeColor=#457B9D;dashed=1;dashPattern=1 1;" parent="w_BIVJK4_qSYrG3gyEWa-17" vertex="1">
          <mxGeometry x="100" width="210" height="243" as="geometry">
            <mxRectangle width="210" height="243" as="alternateBounds" />
          </mxGeometry>
        </mxCell>
        <mxCell id="w_BIVJK4_qSYrG3gyEWa-18" style="swimlane;swimlaneHead=0;swimlaneBody=0;fontStyle=0;connectable=0;fillColor=none;startSize=0;collapsible=0;recursiveResize=0;expand=0;fontStyle=1;rounded=1;fontColor=#1D3557;strokeColor=#457B9D;dashed=1;dashPattern=1 1;" parent="w_BIVJK4_qSYrG3gyEWa-17" vertex="1">
          <mxGeometry x="310" width="390" height="243" as="geometry">
            <mxRectangle width="390" height="243" as="alternateBounds" />
          </mxGeometry>
        </mxCell>
        <mxCell id="5WM7OzFjDkamJJKNZSvt-85" value="&lt;font style=&quot;font-size: 14px;&quot;&gt;提供母體資訊&lt;/font&gt;" style="whiteSpace=wrap;html=1;fontSize=17;fillColor=#A8DADC;strokeColor=#457B9D;fontColor=#1D3557;rounded=1;dashed=1;dashPattern=1 1;" parent="w_BIVJK4_qSYrG3gyEWa-18" vertex="1">
          <mxGeometry x="80" y="91" width="120" height="60" as="geometry" />
        </mxCell>
        <mxCell id="5WM7OzFjDkamJJKNZSvt-24" value="&lt;font style=&quot;font-size: 11px;&quot;&gt;是否過GCF?&lt;/font&gt;" style="rhombus;whiteSpace=wrap;html=1;fontSize=17;fillColor=#A8DADC;strokeColor=#457B9D;fontColor=#1D3557;rounded=1;dashed=1;dashPattern=1 1;" parent="w_BIVJK4_qSYrG3gyEWa-18" vertex="1">
          <mxGeometry x="-42" y="-22" width="82" height="72" as="geometry" />
        </mxCell>
        <mxCell id="w_BIVJK4_qSYrG3gyEWa-19" style="swimlane;swimlaneHead=0;swimlaneBody=0;fontStyle=0;connectable=0;fillColor=none;startSize=0;collapsible=0;recursiveResize=0;expand=0;fontStyle=1;rounded=1;fontColor=#1D3557;strokeColor=#457B9D;dashed=1;dashPattern=1 1;" parent="w_BIVJK4_qSYrG3gyEWa-17" vertex="1">
          <mxGeometry x="700" width="230" height="243" as="geometry">
            <mxRectangle width="230" height="243" as="alternateBounds" />
          </mxGeometry>
        </mxCell>
        <mxCell id="5WM7OzFjDkamJJKNZSvt-18" value="&lt;font style=&quot;font-size: 13px;&quot;&gt;產出母體並&lt;br&gt;上傳UNICA&lt;/font&gt;" style="whiteSpace=wrap;html=1;fontSize=17;fillColor=#A8DADC;strokeColor=#457B9D;fontColor=#1D3557;rounded=1;dashed=1;dashPattern=1 1;" parent="w_BIVJK4_qSYrG3gyEWa-19" vertex="1">
          <mxGeometry x="57" y="40" width="120" height="60" as="geometry" />
        </mxCell>
        <mxCell id="w_BIVJK4_qSYrG3gyEWa-20" style="swimlane;swimlaneHead=0;swimlaneBody=0;fontStyle=0;connectable=0;fillColor=none;startSize=0;collapsible=0;recursiveResize=0;expand=0;fontStyle=1;rounded=1;fontColor=#1D3557;strokeColor=#457B9D;dashed=1;dashPattern=1 1;" parent="w_BIVJK4_qSYrG3gyEWa-17" vertex="1">
          <mxGeometry x="930" width="220" height="243" as="geometry">
            <mxRectangle width="220" height="243" as="alternateBounds" />
          </mxGeometry>
        </mxCell>
        <mxCell id="5WM7OzFjDkamJJKNZSvt-48" value="&lt;font style=&quot;font-size: 11px;&quot;&gt;是否由非UNICA控管?&lt;/font&gt;" style="rhombus;whiteSpace=wrap;html=1;fontSize=17;fillColor=#A8DADC;strokeColor=#457B9D;fontColor=#1D3557;rounded=1;dashed=1;dashPattern=1 1;" parent="w_BIVJK4_qSYrG3gyEWa-20" vertex="1">
          <mxGeometry x="181" y="42" width="80" height="80" as="geometry" />
        </mxCell>
        <mxCell id="5WM7OzFjDkamJJKNZSvt-53" value="&lt;font style=&quot;font-size: 14px;&quot;&gt;N&lt;/font&gt;" style="text;html=1;resizable=0;autosize=1;align=center;verticalAlign=middle;points=[];fillColor=none;strokeColor=none;rounded=1;fontSize=13;fontColor=#1D3557;dashed=1;dashPattern=1 1;" parent="w_BIVJK4_qSYrG3gyEWa-20" vertex="1">
          <mxGeometry x="240" y="109" width="30" height="20" as="geometry" />
        </mxCell>
        <mxCell id="SjREfzZsGC1jxPRMe95D-11" style="swimlane;swimlaneHead=0;swimlaneBody=0;fontStyle=0;connectable=0;fillColor=none;startSize=0;collapsible=0;recursiveResize=0;expand=0;fontStyle=1;rounded=1;fontColor=#1D3557;strokeColor=#457B9D;dashed=1;dashPattern=1 1;" parent="w_BIVJK4_qSYrG3gyEWa-17" vertex="1">
          <mxGeometry x="1150" width="410" height="243" as="geometry">
            <mxRectangle width="410" height="243" as="alternateBounds" />
          </mxGeometry>
        </mxCell>
        <mxCell id="5WM7OzFjDkamJJKNZSvt-52" value="&lt;font style=&quot;font-size: 14px;&quot;&gt;Y&lt;/font&gt;" style="text;html=1;resizable=0;autosize=1;align=center;verticalAlign=middle;points=[];fillColor=none;strokeColor=none;rounded=1;fontSize=13;fontColor=#1D3557;dashed=1;dashPattern=1 1;" parent="SjREfzZsGC1jxPRMe95D-11" vertex="1">
          <mxGeometry x="41" y="50" width="20" height="20" as="geometry" />
        </mxCell>
        <mxCell id="SjREfzZsGC1jxPRMe95D-8" style="swimlane;swimlaneHead=0;swimlaneBody=0;fontStyle=0;connectable=0;fillColor=none;startSize=0;collapsible=0;recursiveResize=0;expand=0;fontStyle=1;rounded=1;fontColor=#1D3557;strokeColor=#457B9D;dashed=1;dashPattern=1 1;" parent="w_BIVJK4_qSYrG3gyEWa-17" vertex="1">
          <mxGeometry x="1560" width="180" height="243" as="geometry">
            <mxRectangle width="180" height="243" as="alternateBounds" />
          </mxGeometry>
        </mxCell>
        <mxCell id="LSdo99gwDcRK3MonjKgG-1" value="&lt;font style=&quot;font-size: 11px;&quot;&gt;是否由非EG&lt;br&gt;控管GCF?&lt;/font&gt;" style="rhombus;whiteSpace=wrap;html=1;fontSize=17;fillColor=#A8DADC;strokeColor=#457B9D;fontColor=#1D3557;rounded=1;dashed=1;dashPattern=1 1;" parent="SjREfzZsGC1jxPRMe95D-8" vertex="1">
          <mxGeometry x="-40" y="42" width="80" height="80" as="geometry" />
        </mxCell>
        <mxCell id="LSdo99gwDcRK3MonjKgG-7" value="&lt;font style=&quot;font-size: 14px;&quot;&gt;Y&lt;/font&gt;" style="text;html=1;resizable=0;autosize=1;align=center;verticalAlign=middle;points=[];fillColor=none;strokeColor=none;rounded=1;fontSize=13;fontColor=#1D3557;dashed=1;dashPattern=1 1;" parent="SjREfzZsGC1jxPRMe95D-8" vertex="1">
          <mxGeometry x="10" y="131" width="20" height="20" as="geometry" />
        </mxCell>
        <mxCell id="LSdo99gwDcRK3MonjKgG-8" value="&lt;font style=&quot;font-size: 14px;&quot;&gt;N&lt;/font&gt;" style="text;html=1;resizable=0;autosize=1;align=center;verticalAlign=middle;points=[];fillColor=none;strokeColor=none;rounded=1;fontSize=13;fontColor=#1D3557;dashed=1;dashPattern=1 1;arcSize=50;" parent="SjREfzZsGC1jxPRMe95D-8" vertex="1">
          <mxGeometry x="40" y="54" width="30" height="20" as="geometry" />
        </mxCell>
        <mxCell id="SjREfzZsGC1jxPRMe95D-5" style="swimlane;swimlaneHead=0;swimlaneBody=0;fontStyle=0;connectable=0;fillColor=none;startSize=0;collapsible=0;recursiveResize=0;expand=0;fontStyle=1;rounded=1;fontColor=#1D3557;strokeColor=#457B9D;dashed=1;dashPattern=1 1;" parent="w_BIVJK4_qSYrG3gyEWa-17" vertex="1">
          <mxGeometry x="1740" width="160" height="243" as="geometry">
            <mxRectangle width="160" height="243" as="alternateBounds" />
          </mxGeometry>
        </mxCell>
        <mxCell id="LSdo99gwDcRK3MonjKgG-5" value="&lt;font style=&quot;font-size: 11px;&quot;&gt;是否直接&lt;br&gt;上傳B08&lt;/font&gt;" style="rhombus;whiteSpace=wrap;html=1;fontSize=17;fillColor=#A8DADC;strokeColor=#457B9D;fontColor=#1D3557;rounded=1;dashed=1;dashPattern=1 1;" parent="SjREfzZsGC1jxPRMe95D-5" vertex="1">
          <mxGeometry x="-40" y="42" width="80" height="80" as="geometry" />
        </mxCell>
        <mxCell id="LSdo99gwDcRK3MonjKgG-10" value="&lt;font style=&quot;font-size: 14px;&quot;&gt;N&lt;/font&gt;" style="text;html=1;resizable=0;autosize=1;align=center;verticalAlign=middle;points=[];fillColor=none;strokeColor=none;rounded=1;fontSize=13;fontColor=#1D3557;dashed=1;dashPattern=1 1;arcSize=50;" parent="SjREfzZsGC1jxPRMe95D-5" vertex="1">
          <mxGeometry x="10" y="131" width="30" height="20" as="geometry" />
        </mxCell>
        <mxCell id="LSdo99gwDcRK3MonjKgG-12" value="&lt;font style=&quot;font-size: 14px;&quot;&gt;Y&lt;/font&gt;" style="text;html=1;resizable=0;autosize=1;align=center;verticalAlign=middle;points=[];fillColor=none;strokeColor=none;rounded=1;fontSize=13;fontColor=#1D3557;dashed=1;dashPattern=1 1;arcSize=50;" parent="SjREfzZsGC1jxPRMe95D-5" vertex="1">
          <mxGeometry x="50" y="54" width="20" height="20" as="geometry" />
        </mxCell>
        <mxCell id="w_BIVJK4_qSYrG3gyEWa-21" style="swimlane;swimlaneHead=0;swimlaneBody=0;fontStyle=0;connectable=0;fillColor=none;startSize=0;collapsible=0;recursiveResize=0;expand=0;fontStyle=1;rounded=1;fontColor=#1D3557;strokeColor=#457B9D;dashed=1;dashPattern=1 1;" parent="w_BIVJK4_qSYrG3gyEWa-17" vertex="1">
          <mxGeometry x="1900" width="160" height="243" as="geometry">
            <mxRectangle width="160" height="243" as="alternateBounds" />
          </mxGeometry>
        </mxCell>
        <mxCell id="SjREfzZsGC1jxPRMe95D-39" style="swimlane;swimlaneHead=0;swimlaneBody=0;fontStyle=0;connectable=0;fillColor=none;startSize=0;collapsible=0;recursiveResize=0;expand=0;fontStyle=1;rounded=1;fontColor=#1D3557;strokeColor=#457B9D;dashed=1;dashPattern=1 1;" parent="w_BIVJK4_qSYrG3gyEWa-17" vertex="1">
          <mxGeometry x="2060" width="190" height="243" as="geometry">
            <mxRectangle width="190" height="243" as="alternateBounds" />
          </mxGeometry>
        </mxCell>
        <mxCell id="LSdo99gwDcRK3MonjKgG-2" value="" style="edgeStyle=orthogonalEdgeStyle;rounded=1;orthogonalLoop=1;jettySize=auto;html=1;strokeColor=#457B9D;strokeWidth=5;" parent="w_BIVJK4_qSYrG3gyEWa-17" source="5WM7OzFjDkamJJKNZSvt-48" target="LSdo99gwDcRK3MonjKgG-1" edge="1">
          <mxGeometry relative="1" as="geometry" />
        </mxCell>
        <mxCell id="LSdo99gwDcRK3MonjKgG-6" value="" style="edgeStyle=orthogonalEdgeStyle;rounded=1;orthogonalLoop=1;jettySize=auto;html=1;strokeColor=#457B9D;strokeWidth=5;" parent="w_BIVJK4_qSYrG3gyEWa-17" source="LSdo99gwDcRK3MonjKgG-1" target="LSdo99gwDcRK3MonjKgG-5" edge="1">
          <mxGeometry relative="1" as="geometry" />
        </mxCell>
        <mxCell id="SjREfzZsGC1jxPRMe95D-12" style="shape=tableRow;horizontal=0;startSize=100;swimlaneHead=0;swimlaneBody=0;top=0;left=0;bottom=0;right=0;dropTarget=0;fillColor=#FFFFCC;collapsible=0;recursiveResize=0;expand=0;fontStyle=1;rounded=1;strokeColor=#36393d;dashed=1;dashPattern=1 1;swimlaneFillColor=#FFFFCC;opacity=50;" parent="UMTA41j7bZhNf6njEWew-1" vertex="1">
          <mxGeometry y="629" width="2250" height="154" as="geometry" />
        </mxCell>
        <mxCell id="5WM7OzFjDkamJJKNZSvt-12" style="swimlane;swimlaneHead=0;swimlaneBody=0;fontStyle=0;connectable=0;fillColor=none;startSize=0;collapsible=0;recursiveResize=0;expand=0;fontStyle=1;rounded=1;fontColor=#1D3557;strokeColor=#457B9D;dashed=1;dashPattern=1 1;" parent="SjREfzZsGC1jxPRMe95D-12" vertex="1">
          <mxGeometry x="100" width="210" height="154" as="geometry">
            <mxRectangle width="210" height="154" as="alternateBounds" />
          </mxGeometry>
        </mxCell>
        <mxCell id="SjREfzZsGC1jxPRMe95D-13" style="swimlane;swimlaneHead=0;swimlaneBody=0;fontStyle=0;connectable=0;fillColor=none;startSize=0;collapsible=0;recursiveResize=0;expand=0;fontStyle=1;rounded=1;fontColor=#1D3557;strokeColor=#457B9D;dashed=1;dashPattern=1 1;" parent="SjREfzZsGC1jxPRMe95D-12" vertex="1">
          <mxGeometry x="310" width="390" height="154" as="geometry">
            <mxRectangle width="390" height="154" as="alternateBounds" />
          </mxGeometry>
        </mxCell>
        <mxCell id="5WM7OzFjDkamJJKNZSvt-72" value="&lt;font style=&quot;font-size: 14px;&quot;&gt;提供專案識別碼&lt;/font&gt;" style="whiteSpace=wrap;html=1;fontSize=17;fillColor=#A8DADC;strokeColor=#457B9D;fontColor=#1D3557;rounded=1;dashed=1;dashPattern=1 1;" parent="SjREfzZsGC1jxPRMe95D-13" vertex="1">
          <mxGeometry x="80" y="50" width="120" height="60" as="geometry" />
        </mxCell>
        <mxCell id="SjREfzZsGC1jxPRMe95D-14" style="swimlane;swimlaneHead=0;swimlaneBody=0;fontStyle=0;connectable=0;fillColor=none;startSize=0;collapsible=0;recursiveResize=0;expand=0;fontStyle=1;rounded=1;fontColor=#1D3557;strokeColor=#457B9D;dashed=1;dashPattern=1 1;" parent="SjREfzZsGC1jxPRMe95D-12" vertex="1">
          <mxGeometry x="700" width="230" height="154" as="geometry">
            <mxRectangle width="230" height="154" as="alternateBounds" />
          </mxGeometry>
        </mxCell>
        <mxCell id="SjREfzZsGC1jxPRMe95D-15" style="swimlane;swimlaneHead=0;swimlaneBody=0;fontStyle=0;connectable=0;fillColor=none;startSize=0;collapsible=0;recursiveResize=0;expand=0;fontStyle=1;rounded=1;fontColor=#1D3557;strokeColor=#457B9D;dashed=1;dashPattern=1 1;" parent="SjREfzZsGC1jxPRMe95D-12" vertex="1">
          <mxGeometry x="930" width="220" height="154" as="geometry">
            <mxRectangle width="220" height="154" as="alternateBounds" />
          </mxGeometry>
        </mxCell>
        <mxCell id="5WM7OzFjDkamJJKNZSvt-69" value="&lt;font style=&quot;font-size: 14px;&quot;&gt;派送名單&lt;br&gt;至通路系統&lt;/font&gt;" style="whiteSpace=wrap;html=1;fontSize=17;fillColor=#A8DADC;strokeColor=#457B9D;fontColor=#1D3557;rounded=1;dashed=1;dashPattern=1 1;" parent="SjREfzZsGC1jxPRMe95D-15" vertex="1">
          <mxGeometry x="56" y="50" width="120" height="60" as="geometry" />
        </mxCell>
        <mxCell id="SjREfzZsGC1jxPRMe95D-16" style="swimlane;swimlaneHead=0;swimlaneBody=0;fontStyle=0;connectable=0;fillColor=none;startSize=0;collapsible=0;recursiveResize=0;expand=0;fontStyle=1;rounded=1;fontColor=#1D3557;strokeColor=#457B9D;dashed=1;dashPattern=1 1;" parent="SjREfzZsGC1jxPRMe95D-12" vertex="1">
          <mxGeometry x="1150" width="410" height="154" as="geometry">
            <mxRectangle width="410" height="154" as="alternateBounds" />
          </mxGeometry>
        </mxCell>
        <mxCell id="SjREfzZsGC1jxPRMe95D-17" style="swimlane;swimlaneHead=0;swimlaneBody=0;fontStyle=0;connectable=0;fillColor=none;startSize=0;collapsible=0;recursiveResize=0;expand=0;fontStyle=1;rounded=1;fontColor=#1D3557;strokeColor=#457B9D;dashed=1;dashPattern=1 1;" parent="SjREfzZsGC1jxPRMe95D-12" vertex="1">
          <mxGeometry x="1560" width="180" height="154" as="geometry">
            <mxRectangle width="180" height="154" as="alternateBounds" />
          </mxGeometry>
        </mxCell>
        <mxCell id="SjREfzZsGC1jxPRMe95D-18" style="swimlane;swimlaneHead=0;swimlaneBody=0;fontStyle=0;connectable=0;fillColor=none;startSize=0;collapsible=0;recursiveResize=0;expand=0;fontStyle=1;rounded=1;fontColor=#1D3557;strokeColor=#457B9D;dashed=1;dashPattern=1 1;" parent="SjREfzZsGC1jxPRMe95D-12" vertex="1">
          <mxGeometry x="1740" width="160" height="154" as="geometry">
            <mxRectangle width="160" height="154" as="alternateBounds" />
          </mxGeometry>
        </mxCell>
        <mxCell id="SjREfzZsGC1jxPRMe95D-19" style="swimlane;swimlaneHead=0;swimlaneBody=0;fontStyle=0;connectable=0;fillColor=none;startSize=0;collapsible=0;recursiveResize=0;expand=0;fontStyle=1;rounded=1;fontColor=#1D3557;strokeColor=#457B9D;dashed=1;dashPattern=1 1;" parent="SjREfzZsGC1jxPRMe95D-12" vertex="1">
          <mxGeometry x="1900" width="160" height="154" as="geometry">
            <mxRectangle width="160" height="154" as="alternateBounds" />
          </mxGeometry>
        </mxCell>
        <mxCell id="SjREfzZsGC1jxPRMe95D-40" style="swimlane;swimlaneHead=0;swimlaneBody=0;fontStyle=0;connectable=0;fillColor=none;startSize=0;collapsible=0;recursiveResize=0;expand=0;fontStyle=1;rounded=1;fontColor=#1D3557;strokeColor=#457B9D;dashed=1;dashPattern=1 1;" parent="SjREfzZsGC1jxPRMe95D-12" vertex="1">
          <mxGeometry x="2060" width="190" height="154" as="geometry">
            <mxRectangle width="190" height="154" as="alternateBounds" />
          </mxGeometry>
        </mxCell>
        <mxCell id="5WM7OzFjDkamJJKNZSvt-32" style="shape=tableRow;horizontal=0;startSize=100;swimlaneHead=0;swimlaneBody=0;top=0;left=0;bottom=0;right=0;dropTarget=0;fillColor=#F8CECC;collapsible=0;recursiveResize=0;expand=0;fontStyle=1;rounded=1;strokeColor=#b46504;dashed=1;dashPattern=1 1;opacity=40;" parent="UMTA41j7bZhNf6njEWew-1" vertex="1">
          <mxGeometry y="783" width="2250" height="177" as="geometry" />
        </mxCell>
        <mxCell id="5WM7OzFjDkamJJKNZSvt-33" style="swimlane;swimlaneHead=0;swimlaneBody=0;fontStyle=0;connectable=0;fillColor=#CCFFFF;startSize=0;collapsible=0;recursiveResize=0;expand=0;fontStyle=1;rounded=1;fontColor=#1D3557;strokeColor=#457B9D;dashed=1;dashPattern=1 1;opacity=40;" parent="5WM7OzFjDkamJJKNZSvt-32" vertex="1">
          <mxGeometry x="100" width="210" height="177" as="geometry">
            <mxRectangle width="210" height="177" as="alternateBounds" />
          </mxGeometry>
        </mxCell>
        <mxCell id="5WM7OzFjDkamJJKNZSvt-34" style="swimlane;swimlaneHead=0;swimlaneBody=0;fontStyle=0;connectable=0;fillColor=#FAD7AC;startSize=0;collapsible=0;recursiveResize=0;expand=0;fontStyle=1;rounded=1;fontColor=#1D3557;strokeColor=#457B9D;dashed=1;dashPattern=1 1;" parent="5WM7OzFjDkamJJKNZSvt-32" vertex="1">
          <mxGeometry x="310" width="390" height="177" as="geometry">
            <mxRectangle width="390" height="177" as="alternateBounds" />
          </mxGeometry>
        </mxCell>
        <mxCell id="5WM7OzFjDkamJJKNZSvt-35" style="swimlane;swimlaneHead=0;swimlaneBody=0;fontStyle=0;connectable=0;fillColor=none;startSize=0;collapsible=0;recursiveResize=0;expand=0;fontStyle=1;rounded=1;fontColor=#1D3557;strokeColor=#457B9D;dashed=1;dashPattern=1 1;" parent="5WM7OzFjDkamJJKNZSvt-32" vertex="1">
          <mxGeometry x="700" width="230" height="177" as="geometry">
            <mxRectangle width="230" height="177" as="alternateBounds" />
          </mxGeometry>
        </mxCell>
        <mxCell id="5WM7OzFjDkamJJKNZSvt-36" style="swimlane;swimlaneHead=0;swimlaneBody=0;fontStyle=0;connectable=0;fillColor=none;startSize=0;collapsible=0;recursiveResize=0;expand=0;fontStyle=1;rounded=1;fontColor=#1D3557;strokeColor=#457B9D;dashed=1;dashPattern=1 1;" parent="5WM7OzFjDkamJJKNZSvt-32" vertex="1">
          <mxGeometry x="930" width="220" height="177" as="geometry">
            <mxRectangle width="220" height="177" as="alternateBounds" />
          </mxGeometry>
        </mxCell>
        <mxCell id="5WM7OzFjDkamJJKNZSvt-37" style="swimlane;swimlaneHead=0;swimlaneBody=0;fontStyle=0;connectable=0;fillColor=none;startSize=0;collapsible=0;recursiveResize=0;expand=0;fontStyle=1;rounded=1;fontColor=#1D3557;strokeColor=#457B9D;dashed=1;dashPattern=1 1;" parent="5WM7OzFjDkamJJKNZSvt-32" vertex="1">
          <mxGeometry x="1150" width="410" height="177" as="geometry">
            <mxRectangle width="410" height="177" as="alternateBounds" />
          </mxGeometry>
        </mxCell>
        <mxCell id="5WM7OzFjDkamJJKNZSvt-46" value="名單發送完成" style="ellipse;whiteSpace=wrap;html=1;fontSize=17;fillColor=#ffcd28;strokeColor=#d79b00;rounded=1;dashed=1;dashPattern=1 1;gradientColor=#ffa500;" parent="5WM7OzFjDkamJJKNZSvt-37" vertex="1">
          <mxGeometry x="130" y="42" width="120" height="60" as="geometry" />
        </mxCell>
        <mxCell id="5WM7OzFjDkamJJKNZSvt-38" style="swimlane;swimlaneHead=0;swimlaneBody=0;fontStyle=0;connectable=0;fillColor=none;startSize=0;collapsible=0;recursiveResize=0;expand=0;fontStyle=1;rounded=1;fontColor=#1D3557;strokeColor=#457B9D;dashed=1;dashPattern=1 1;" parent="5WM7OzFjDkamJJKNZSvt-32" vertex="1">
          <mxGeometry x="1560" width="180" height="177" as="geometry">
            <mxRectangle width="180" height="177" as="alternateBounds" />
          </mxGeometry>
        </mxCell>
        <mxCell id="5WM7OzFjDkamJJKNZSvt-50" value="名單發送完成" style="ellipse;whiteSpace=wrap;html=1;fontSize=17;fillColor=#ffcd28;strokeColor=#d79b00;rounded=1;dashed=1;dashPattern=1 1;gradientColor=#ffa500;" parent="5WM7OzFjDkamJJKNZSvt-38" vertex="1">
          <mxGeometry x="35" y="40" width="120" height="60" as="geometry" />
        </mxCell>
        <mxCell id="5WM7OzFjDkamJJKNZSvt-39" style="swimlane;swimlaneHead=0;swimlaneBody=0;fontStyle=0;connectable=0;fillColor=#DAE8FC;startSize=0;collapsible=0;recursiveResize=0;expand=0;fontStyle=1;rounded=1;strokeColor=#6c8ebf;dashed=1;dashPattern=1 1;gradientColor=#7ea6e0;" parent="5WM7OzFjDkamJJKNZSvt-32" vertex="1">
          <mxGeometry x="1740" width="160" height="177" as="geometry">
            <mxRectangle width="160" height="177" as="alternateBounds" />
          </mxGeometry>
        </mxCell>
        <mxCell id="5WM7OzFjDkamJJKNZSvt-56" value="&lt;span style=&quot;&quot;&gt;名單發送完成&lt;/span&gt;" style="ellipse;whiteSpace=wrap;html=1;fontSize=17;fillColor=#ffcd28;strokeColor=#d79b00;rounded=1;dashed=1;dashPattern=1 1;gradientColor=#ffa500;" parent="5WM7OzFjDkamJJKNZSvt-39" vertex="1">
          <mxGeometry x="29" y="43.5" width="120" height="60" as="geometry" />
        </mxCell>
        <mxCell id="5WM7OzFjDkamJJKNZSvt-40" style="swimlane;swimlaneHead=0;swimlaneBody=0;fontStyle=0;connectable=0;fillColor=none;startSize=0;collapsible=0;recursiveResize=0;expand=0;fontStyle=1;rounded=1;fontColor=#1D3557;strokeColor=#457B9D;dashed=1;dashPattern=1 1;" parent="5WM7OzFjDkamJJKNZSvt-32" vertex="1">
          <mxGeometry x="1900" width="160" height="177" as="geometry">
            <mxRectangle width="160" height="177" as="alternateBounds" />
          </mxGeometry>
        </mxCell>
        <mxCell id="5WM7OzFjDkamJJKNZSvt-60" value="&lt;span style=&quot;&quot;&gt;名單發送完成&lt;/span&gt;" style="ellipse;whiteSpace=wrap;html=1;fontSize=17;fillColor=#ffcd28;strokeColor=#d79b00;rounded=1;dashed=1;dashPattern=1 1;gradientColor=#ffa500;" parent="5WM7OzFjDkamJJKNZSvt-40" vertex="1">
          <mxGeometry x="22" y="43.5" width="120" height="60" as="geometry" />
        </mxCell>
        <mxCell id="5WM7OzFjDkamJJKNZSvt-41" style="swimlane;swimlaneHead=0;swimlaneBody=0;fontStyle=0;connectable=0;fillColor=none;startSize=0;collapsible=0;recursiveResize=0;expand=0;fontStyle=1;rounded=1;fontColor=#1D3557;strokeColor=#457B9D;dashed=1;dashPattern=1 1;" parent="5WM7OzFjDkamJJKNZSvt-32" vertex="1">
          <mxGeometry x="2060" width="190" height="177" as="geometry">
            <mxRectangle width="190" height="177" as="alternateBounds" />
          </mxGeometry>
        </mxCell>
        <mxCell id="5WM7OzFjDkamJJKNZSvt-67" value="&lt;span style=&quot;&quot;&gt;名單發送完成&lt;/span&gt;" style="ellipse;whiteSpace=wrap;html=1;fontSize=17;fillColor=#ffcd28;strokeColor=#d79b00;rounded=1;dashed=1;dashPattern=1 1;gradientColor=#ffa500;" parent="5WM7OzFjDkamJJKNZSvt-41" vertex="1">
          <mxGeometry x="40" y="43" width="120" height="60" as="geometry" />
        </mxCell>
        <mxCell id="5WM7OzFjDkamJJKNZSvt-70" value="" style="edgeStyle=orthogonalEdgeStyle;rounded=1;orthogonalLoop=1;jettySize=auto;html=1;fontSize=16;fontColor=#1D3557;strokeColor=#457B9D;fillColor=#A8DADC;jumpSize=13;strokeWidth=5;" parent="UMTA41j7bZhNf6njEWew-1" target="5WM7OzFjDkamJJKNZSvt-69" edge="1">
          <mxGeometry relative="1" as="geometry">
            <mxPoint x="1151" y="500" as="sourcePoint" />
          </mxGeometry>
        </mxCell>
        <mxCell id="5WM7OzFjDkamJJKNZSvt-71" style="edgeStyle=orthogonalEdgeStyle;rounded=1;orthogonalLoop=1;jettySize=auto;html=1;fontSize=16;fontColor=#1D3557;strokeColor=#457B9D;fillColor=#A8DADC;exitX=0.5;exitY=1;exitDx=0;exitDy=0;jumpSize=13;strokeWidth=5;" parent="UMTA41j7bZhNf6njEWew-1" source="5WM7OzFjDkamJJKNZSvt-69" edge="1">
          <mxGeometry relative="1" as="geometry">
            <mxPoint x="1280" y="860" as="targetPoint" />
            <Array as="points">
              <mxPoint x="1151" y="860" />
              <mxPoint x="1278" y="860" />
            </Array>
          </mxGeometry>
        </mxCell>
        <mxCell id="5WM7OzFjDkamJJKNZSvt-84" style="edgeStyle=orthogonalEdgeStyle;rounded=1;orthogonalLoop=1;jettySize=auto;html=1;entryX=0.5;entryY=0;entryDx=0;entryDy=0;fontSize=15;fontColor=#1D3557;strokeColor=#457B9D;fillColor=#A8DADC;jumpSize=13;strokeWidth=5;" parent="UMTA41j7bZhNf6njEWew-1" source="5WM7OzFjDkamJJKNZSvt-79" target="5WM7OzFjDkamJJKNZSvt-18" edge="1">
          <mxGeometry relative="1" as="geometry" />
        </mxCell>
        <mxCell id="QNSCKvZcCUtr9aruzuNG-16" style="edgeStyle=orthogonalEdgeStyle;rounded=1;jumpSize=17;orthogonalLoop=1;jettySize=auto;html=1;entryX=0.5;entryY=1;entryDx=0;entryDy=0;fontSize=11;fontColor=#1D3557;strokeColor=#457B9D;strokeWidth=5;fillColor=#A8DADC;" parent="UMTA41j7bZhNf6njEWew-1" source="5WM7OzFjDkamJJKNZSvt-72" target="5WM7OzFjDkamJJKNZSvt-79" edge="1">
          <mxGeometry relative="1" as="geometry" />
        </mxCell>
        <mxCell id="5WM7OzFjDkamJJKNZSvt-86" value="" style="edgeStyle=orthogonalEdgeStyle;rounded=1;orthogonalLoop=1;jettySize=auto;html=1;fontSize=15;fontColor=#1D3557;strokeColor=#457B9D;fillColor=#A8DADC;jumpSize=13;strokeWidth=5;" parent="UMTA41j7bZhNf6njEWew-1" source="5WM7OzFjDkamJJKNZSvt-15" target="5WM7OzFjDkamJJKNZSvt-85" edge="1">
          <mxGeometry relative="1" as="geometry" />
        </mxCell>
        <mxCell id="xFturlOaTy55xNONetLh-4" style="edgeStyle=orthogonalEdgeStyle;rounded=1;jumpSize=17;orthogonalLoop=1;jettySize=auto;html=1;entryX=0.5;entryY=0;entryDx=0;entryDy=0;fontSize=24;fontColor=#1D3557;strokeColor=#457B9D;strokeWidth=5;fillColor=#A8DADC;" parent="UMTA41j7bZhNf6njEWew-1" source="5WM7OzFjDkamJJKNZSvt-85" target="5WM7OzFjDkamJJKNZSvt-72" edge="1">
          <mxGeometry relative="1" as="geometry" />
        </mxCell>
        <mxCell id="LSdo99gwDcRK3MonjKgG-4" style="edgeStyle=orthogonalEdgeStyle;rounded=1;orthogonalLoop=1;jettySize=auto;html=1;entryX=0;entryY=0.5;entryDx=0;entryDy=0;strokeColor=#457B9D;strokeWidth=5;" parent="UMTA41j7bZhNf6njEWew-1" source="LSdo99gwDcRK3MonjKgG-1" target="5WM7OzFjDkamJJKNZSvt-50" edge="1">
          <mxGeometry relative="1" as="geometry" />
        </mxCell>
        <mxCell id="LSdo99gwDcRK3MonjKgG-9" style="edgeStyle=orthogonalEdgeStyle;rounded=1;orthogonalLoop=1;jettySize=auto;html=1;entryX=0;entryY=0.5;entryDx=0;entryDy=0;strokeColor=#457B9D;strokeWidth=5;" parent="UMTA41j7bZhNf6njEWew-1" source="LSdo99gwDcRK3MonjKgG-5" target="5WM7OzFjDkamJJKNZSvt-56" edge="1">
          <mxGeometry relative="1" as="geometry" />
        </mxCell>
        <mxCell id="LSdo99gwDcRK3MonjKgG-11" style="edgeStyle=orthogonalEdgeStyle;rounded=1;orthogonalLoop=1;jettySize=auto;html=1;entryX=0.5;entryY=0;entryDx=0;entryDy=0;strokeColor=#457B9D;strokeWidth=5;" parent="UMTA41j7bZhNf6njEWew-1" source="LSdo99gwDcRK3MonjKgG-5" target="5WM7OzFjDkamJJKNZSvt-60" edge="1">
          <mxGeometry relative="1" as="geometry" />
        </mxCell>
        <mxCell id="5lU_nhnVXa3-YzZA6gmE-1" style="edgeStyle=orthogonalEdgeStyle;rounded=1;orthogonalLoop=1;jettySize=auto;html=1;entryX=0;entryY=0.5;entryDx=0;entryDy=0;strokeColor=#457B9D;strokeWidth=5;exitX=0.5;exitY=1;exitDx=0;exitDy=0;" edge="1" parent="UMTA41j7bZhNf6njEWew-1" source="5WM7OzFjDkamJJKNZSvt-18" target="5WM7OzFjDkamJJKNZSvt-69">
          <mxGeometry relative="1" as="geometry" />
        </mxCell>
        <mxCell id="5lU_nhnVXa3-YzZA6gmE-2" style="edgeStyle=orthogonalEdgeStyle;rounded=1;orthogonalLoop=1;jettySize=auto;html=1;entryX=0.5;entryY=0;entryDx=0;entryDy=0;strokeColor=#457B9D;strokeWidth=5;" edge="1" parent="UMTA41j7bZhNf6njEWew-1" source="5WM7OzFjDkamJJKNZSvt-5" target="5WM7OzFjDkamJJKNZSvt-24">
          <mxGeometry relative="1" as="geometry" />
        </mxCell>
        <mxCell id="SjREfzZsGC1jxPRMe95D-44" value="" style="pointerEvents=1;shadow=0;dashed=1;html=1;strokeColor=none;labelPosition=center;verticalLabelPosition=bottom;verticalAlign=top;outlineConnect=0;align=center;shape=mxgraph.office.users.users;fillColor=#2072B8;rounded=1;fontSize=12;fontColor=#1D3557;dashPattern=1 1;" parent="1" vertex="1">
          <mxGeometry x="110" y="332" width="46" height="50" as="geometry" />
        </mxCell>
        <mxCell id="SjREfzZsGC1jxPRMe95D-45" value="" style="pointerEvents=1;shadow=0;dashed=1;html=1;strokeColor=none;labelPosition=center;verticalLabelPosition=bottom;verticalAlign=top;outlineConnect=0;align=center;shape=mxgraph.office.users.users;fillColor=#7FBA42;rounded=1;fontSize=12;fontColor=#1D3557;dashPattern=1 1;" parent="1" vertex="1">
          <mxGeometry x="113.5" y="535" width="46" height="50" as="geometry" />
        </mxCell>
        <mxCell id="SjREfzZsGC1jxPRMe95D-46" value="" style="pointerEvents=1;shadow=0;dashed=1;html=1;strokeColor=none;labelPosition=center;verticalLabelPosition=bottom;verticalAlign=top;outlineConnect=0;align=center;shape=mxgraph.office.users.users;fillColor=#CCCBCB;rounded=1;fontSize=12;fontColor=#1D3557;dashPattern=1 1;" parent="1" vertex="1">
          <mxGeometry x="115" y="748" width="46" height="50" as="geometry" />
        </mxCell>
        <mxCell id="SjREfzZsGC1jxPRMe95D-47" value="&lt;font style=&quot;font-size: 17px;&quot;&gt;行銷&lt;/font&gt;" style="text;html=1;resizable=0;autosize=1;align=center;verticalAlign=middle;points=[];fillColor=none;strokeColor=none;rounded=1;fontSize=12;fontColor=#1D3557;fontStyle=1;dashed=1;dashPattern=1 1;" parent="1" vertex="1">
          <mxGeometry x="106" y="306" width="50" height="20" as="geometry" />
        </mxCell>
        <mxCell id="5WM7OzFjDkamJJKNZSvt-7" value="&lt;font style=&quot;font-size: 17px;&quot;&gt;DA&lt;/font&gt;" style="text;html=1;resizable=0;autosize=1;align=center;verticalAlign=middle;points=[];fillColor=none;strokeColor=none;rounded=1;fontSize=12;fontColor=#1D3557;fontStyle=1;dashed=1;dashPattern=1 1;" parent="1" vertex="1">
          <mxGeometry x="114.5" y="500" width="40" height="20" as="geometry" />
        </mxCell>
        <mxCell id="5WM7OzFjDkamJJKNZSvt-8" value="&lt;span style=&quot;font-size: 17px;&quot;&gt;UNICA&lt;/span&gt;&lt;br style=&quot;font-size: 17px;&quot;&gt;&lt;span style=&quot;font-size: 17px;&quot;&gt;&amp;nbsp;team&lt;/span&gt;" style="text;html=1;resizable=0;autosize=1;align=center;verticalAlign=middle;points=[];fillColor=none;strokeColor=none;rounded=1;fontSize=12;fontColor=#1D3557;fontStyle=1;dashed=1;dashPattern=1 1;" parent="1" vertex="1">
          <mxGeometry x="98" y="700" width="70" height="40" as="geometry" />
        </mxCell>
        <mxCell id="5WM7OzFjDkamJJKNZSvt-42" value="" style="pointerEvents=1;shadow=0;dashed=1;html=1;strokeColor=none;fillColor=#505050;labelPosition=center;verticalLabelPosition=bottom;verticalAlign=top;outlineConnect=0;align=center;shape=mxgraph.office.users.user_services;rounded=1;fontSize=11;fontColor=#1D3557;dashPattern=1 1;" parent="1" vertex="1">
          <mxGeometry x="104" y="900" width="59" height="59" as="geometry" />
        </mxCell>
        <mxCell id="5WM7OzFjDkamJJKNZSvt-43" value="&lt;span style=&quot;font-size: 17px;&quot;&gt;通路系統&lt;br&gt;服務&lt;br&gt;&lt;/span&gt;" style="text;html=1;resizable=0;autosize=1;align=center;verticalAlign=middle;points=[];fillColor=none;strokeColor=none;rounded=1;fontSize=12;fontColor=#1D3557;fontStyle=1;dashed=1;dashPattern=1 1;" parent="1" vertex="1">
          <mxGeometry x="88" y="850" width="80" height="40" as="geometry" />
        </mxCell>
      </root>
    </mxGraphModel>
  </diagram>
</mxfile>
